<svg id="Ebene_1" data-name="Ebene 1" xmlns="http://www.w3.org/2000/svg" viewBox="0 0 4535.43 566.93"><defs><style>.cls-1{fill:#fff;}</style></defs><path class="cls-1" d="M4231.59,176h78V434.6h39.81V176H4429V137.85H4231.59ZM3916.41,434.6h198.65V396.43H3956.22V304.9H4092.9V266.32H3956.22V176h153.1V137.85H3916.41Zm-316.32,0h190.44V396.43H3639.9V137.85h-39.81ZM3269.72,176h78V434.6h39.81V176h79.63V137.85H3269.72Zm-311.9-38.17H2918v192.9q0,32.43,14.78,56.65A99.93,99.93,0,0,0,2973,424.75q25.45,13.13,56.23,13.13,31.2,0,56.64-13.13a99.89,99.89,0,0,0,40.23-37.35q14.78-24.22,14.77-56.65V137.85h-39.4V329.52q0,20.12-9.23,35.91a65.78,65.78,0,0,1-25.66,24.84q-16.41,9-37.35,9a72.52,72.52,0,0,1-35.91-9,69.1,69.1,0,0,1-25.85-24.84q-9.66-15.78-9.65-35.91ZM2531.4,242.71a110.2,110.2,0,0,1,58.49-61,106.4,106.4,0,0,1,43.71-9,107.64,107.64,0,0,1,78.6,33.46,119.43,119.43,0,0,1,23.6,36.32,115.08,115.08,0,0,1-23.6,124.16,111,111,0,0,1-34.89,24.22,110.7,110.7,0,0,1-86.6,0,114.16,114.16,0,0,1-35.3-24.43,111.24,111.24,0,0,1-23.81-35.91,114.17,114.17,0,0,1-8.41-44.12,117.54,117.54,0,0,1,8.21-43.72m-37.56,103.44a150.49,150.49,0,0,0,139.76,91.73,148.42,148.42,0,0,0,58.7-11.7,153.09,153.09,0,0,0,81.26-80.65,150.59,150.59,0,0,0,0-117.39,156.78,156.78,0,0,0-81.67-81.67,150.09,150.09,0,0,0-117.19,0,155.33,155.33,0,0,0-80.86,81.67,147.34,147.34,0,0,0-11.69,58.29q0,32.42,11.69,59.72m-254,44.82-3.77,3.77,9.63,9.62-9.63,9.63,3.77,4.19,9.63-9.63,9.63,9.63,3.77-4.19-9.64-9.63,9.64-9.62-3.77-3.77-9.63,9.62Zm32.24-32.24-3.77,3.77,9.62,9.63-9.62,9.63,3.77,3.77,9.62-9.64,9.63,9.64,4.19-3.77-9.63-9.63,9.63-9.63-4.19-3.77-9.63,9.63Zm-32.24,0-3.77,3.77,9.63,9.63-9.63,9.63,3.77,3.77,9.63-9.64,9.63,9.64,3.77-3.77-9.64-9.63,9.64-9.63-3.77-3.77-9.63,9.63Zm-32.24,0-4.18,3.77,9.63,9.63-9.63,9.63,4.18,3.77,9.63-9.64,9.64,9.64,3.76-3.77-9.63-9.63,9.63-9.63-3.76-3.77-9.64,9.63Zm97.13-32.65-4.19,4.18,9.64,9.63-9.64,9.63,4.19,3.76,9.63-9.62,9.63,9.62,3.76-3.76-9.62-9.63,9.62-9.63-3.76-4.18-9.63,9.63Zm-32.65,0-3.77,4.18,9.62,9.63-9.62,9.63,3.77,3.76,9.62-9.62,9.63,9.62,4.19-3.76-9.63-9.63,9.63-9.63-4.19-4.18-9.63,9.63Zm-64.48,0-4.18,4.18,9.63,9.63-9.63,9.63,4.18,3.76,9.63-9.62,9.64,9.62,3.76-3.76-9.63-9.63,9.63-9.63-3.76-4.18-9.64,9.63Zm-32.65,0-3.77,4.18,9.63,9.63-9.63,9.63,3.77,3.76,9.63-9.62,9.62,9.62,4.19-3.76-9.62-9.63,9.62-9.63-4.19-4.18-9.62,9.63Zm167.88-18.85-9.63,9.63,3.76,4.19,9.64-9.63,9.63,9.63,4.18-4.19-9.63-9.63,9.63-9.62-4.18-3.77-9.63,9.62-9.64-9.62-3.76,3.77Zm-32.65,0-9.64,9.63,4.19,4.19,9.63-9.63,9.63,9.63,3.76-4.19-9.62-9.63,9.62-9.62-3.76-3.77-9.63,9.62-9.63-9.62-4.19,3.77Zm-129.37,0-9.63,9.63,3.77,4.19,9.63-9.63,9.62,9.63,4.19-4.19-9.62-9.63,9.62-9.62-4.19-3.77-9.62,9.62-9.63-9.62-3.77,3.77Zm-32.66,0-9.62,9.63,4.19,4.19,9.62-9.63,9.63,9.63,3.77-4.19-9.63-9.63,9.63-9.62-3.77-3.77-9.63,9.62-9.62-9.62-4.19,3.77Zm221.06-46-3.78,4.19L2375,275l-9.63,9.63,3.78,3.77,10-9.63,9.63,9.63,3.77-3.77L2383,275l9.63-9.62-3.77-4.19-9.63,9.62Zm-32.25,0-3.76,4.19,9.63,9.62-9.63,9.63,3.76,3.77,9.64-9.63,9.63,9.63,4.18-3.77-9.63-9.63,9.63-9.62-4.18-4.19-9.63,9.62Zm-32.23,0-4.19,4.19,9.64,9.62-9.64,9.63,4.19,3.77,9.63-9.63,9.63,9.63,3.76-3.77-9.62-9.63,9.62-9.62-3.76-4.19-9.63,9.62Zm-64.89,0-3.77,4.19,9.63,9.62-9.63,9.63,3.77,3.77,9.63-9.63,9.63,9.63,3.77-3.77-9.64-9.63,9.64-9.62-3.77-4.19-9.63,9.62Zm-64.89,0-3.77,4.19,9.63,9.62-9.63,9.63,3.77,3.77,9.63-9.63,9.62,9.63,4.19-3.77-9.62-9.63,9.62-9.62-4.19-4.19-9.62,9.62Zm-32.23,0-4.19,4.19,9.62,9.62-9.62,9.63,4.19,3.77,9.62-9.63,9.63,9.63,3.77-3.77-9.63-9.63,9.63-9.62-3.77-4.19-9.63,9.62Zm-32.25,0-4.18,4.19,9.63,9.62-9.63,9.63,4.18,3.77,9.64-9.63,9.63,9.63,3.76-3.77-9.63-9.63,9.63-9.62-3.76-4.19-9.63,9.62ZM2369.19,229l-3.78,3.76,9.63,9.64-9.63,9.63,3.78,4.18,10-9.63,9.63,9.63,3.77-4.18-9.63-9.63,9.63-9.64-3.77-3.76-9.63,9.63Zm-32.25,0-3.76,3.76,9.63,9.64-9.63,9.63,3.76,4.18,9.64-9.63,9.63,9.63,4.18-4.18-9.63-9.63,9.63-9.64-4.18-3.76-9.63,9.63Zm-64.88,0-3.77,3.76,9.62,9.64-9.62,9.63,3.77,4.18,9.62-9.63,9.63,9.63,4.19-4.18-9.63-9.63,9.63-9.64-4.19-3.76-9.63,9.63Zm-32.24,0-3.77,3.76,9.63,9.64-9.63,9.63,3.77,4.18,9.63-9.63,9.63,9.63,3.77-4.18-9.64-9.63,9.64-9.64-3.77-3.76-9.63,9.63Zm-32.24,0-4.18,3.76,9.63,9.64L2203.4,252l4.18,4.18,9.63-9.63,9.64,9.63,3.76-4.18-9.63-9.63,9.63-9.64-3.76-3.76-9.64,9.63Zm-64.88,0-4.19,3.76,9.62,9.64-9.62,9.63,4.19,4.18,9.62-9.63,9.63,9.63,3.77-4.18-9.63-9.63,9.63-9.64L2162,229l-9.63,9.63Zm-32.25,0-4.18,3.76,9.63,9.64-9.63,9.63,4.18,4.18,9.64-9.63,9.63,9.63,3.76-4.18-9.63-9.63,9.63-9.64-3.76-3.76-9.63,9.63Zm258.74-32.24-3.78,3.77,9.63,9.63-9.63,9.62,3.78,4.19,10-9.62,9.63,9.62,3.77-4.19-9.63-9.62,9.63-9.63-3.77-3.77-9.63,9.64Zm-32.25,0-3.76,3.77,9.63,9.63-9.63,9.62,3.76,4.19,9.64-9.62,9.63,9.62,4.18-4.19-9.63-9.62,9.63-9.63-4.18-3.77-9.63,9.64Zm-32.23,0-4.19,3.77,9.64,9.63-9.64,9.62,4.19,4.19,9.63-9.62,9.63,9.62,3.76-4.19-9.62-9.62,9.62-9.63-3.76-3.77-9.63,9.64Zm-32.65,0-3.77,3.77,9.62,9.63-9.62,9.62,3.77,4.19,9.62-9.62,9.63,9.62,4.19-4.19-9.63-9.62,9.63-9.63-4.19-3.77-9.63,9.64Zm-64.48,0-4.18,3.77,9.63,9.63-9.63,9.62,4.18,4.19,9.63-9.62,9.64,9.62,3.76-4.19-9.63-9.62,9.63-9.63-3.76-3.77-9.64,9.64Zm-32.65,0-3.77,3.77,9.63,9.63-9.63,9.62,3.77,4.19,9.63-9.62,9.62,9.62,4.19-4.19-9.62-9.62,9.62-9.63-4.19-3.77-9.62,9.64Zm-32.23,0-4.19,3.77,9.62,9.63-9.62,9.62,4.19,4.19,9.62-9.62,9.63,9.62,3.77-4.19-9.63-9.62,9.63-9.63-3.77-3.77-9.63,9.64Zm-32.25,0-4.18,3.77,9.63,9.63-9.63,9.62,4.18,4.19,9.64-9.62,9.63,9.62,3.76-4.19-9.63-9.62,9.63-9.63-3.76-3.77-9.63,9.64Zm236.13-23-9.64-9.62-3.76,4.19,9.63,9.62-9.63,9.63,3.76,3.77,9.64-9.63,9.63,9.63,4.18-3.77-9.63-9.63,9.63-9.62-4.18-4.19Zm-32.24,0-9.63-9.62-4.19,4.19,9.64,9.62-9.64,9.63,4.19,3.77,9.63-9.63,9.63,9.63,3.76-3.77-9.62-9.63,9.62-9.62-3.76-4.19Zm-129.78,0-9.63-9.62-3.77,4.19,9.63,9.62-9.63,9.63,3.77,3.77,9.63-9.63,9.62,9.63,4.19-3.77-9.62-9.63,9.62-9.62-4.19-4.19Zm-32.24,0-9.62-9.62-4.19,4.19,9.62,9.62-9.62,9.63,4.19,3.77,9.62-9.63,9.63,9.63,3.77-3.77-9.63-9.63,9.63-9.62-3.77-4.19ZM1836.06,434.6h194.25V395.66H1876.67V131.91h-40.61ZM1490.28,170.85H1543a121.32,121.32,0,0,1,41.86,7.32,110.33,110.33,0,0,1,36,21.56A100.7,100.7,0,0,1,1646,235.11q9.21,21.13,9.22,48.77,0,26.81-8.8,47.52a98,98,0,0,1-24.49,35,108.15,108.15,0,0,1-36.84,21.78,135.68,135.68,0,0,1-45.84,7.53h-49Zm57,263.75a159.29,159.29,0,0,0,57.14-10.26,145.15,145.15,0,0,0,47.73-29.52,138.27,138.27,0,0,0,32.65-46.46q11.94-27.21,11.93-61.55a177.48,177.48,0,0,0-8.79-54.84,145.54,145.54,0,0,0-28.26-50q-19.47-22.81-50.86-36.42t-76.62-13.61h-82.47V434.6Zm-255.34,9.63V131.91h-40.61l.83,226.91,9.21,2.1-231.1-238.21h-2.08V434.6h40.6l-.84-224.82-11.72-2.93,234,237.38Zm-525-135.65,80.8,126h46.89L815.49,307.32Zm-45.21-24.7v-113h46.89q15.9,0,27,5.44a52.39,52.39,0,0,1,18,14,57.36,57.36,0,0,1,10,18.22,60.66,60.66,0,0,1,3.14,18.83,64.62,64.62,0,0,1-2.94,18.84,56,56,0,0,1-9.62,18.22q-6.71,8.58-18.63,14t-29.94,5.44Zm-40.61-152V434.6h40.61V323.24h44.79q28.89,0,48.36-8.58t31.39-22.61a86.65,86.65,0,0,0,17.17-31.19,120.28,120.28,0,0,0,5.23-35.17q0-22.62-8.16-40.2A83,83,0,0,0,837.89,156,98.7,98.7,0,0,0,804,138a142.42,142.42,0,0,0-42.5-6.07ZM482.28,434.6h40.61V131.91H482.28ZM136.52,170.85h52.74a121.38,121.38,0,0,1,41.87,7.32,110.28,110.28,0,0,1,36,21.56,100.73,100.73,0,0,1,25.12,35.38q9.21,21.13,9.21,48.77,0,26.81-8.79,47.52a98.13,98.13,0,0,1-24.49,35,108.24,108.24,0,0,1-36.84,21.78,135.73,135.73,0,0,1-45.84,7.53h-49ZM193.45,434.6a159.25,159.25,0,0,0,57.14-10.26,145,145,0,0,0,47.73-29.52A138.44,138.44,0,0,0,331,348.36q11.92-27.21,11.93-61.55a177.2,177.2,0,0,0-8.8-54.84,145.35,145.35,0,0,0-28.25-50Q286.39,159.13,255,145.52t-76.61-13.61H95.9V434.6Z"/></svg>